<svg width="30" height="30" viewBox="0 0 30 30" fill="none" xmlns="http://www.w3.org/2000/svg">
<path opacity="0.5" d="M3.75 12.5C3.75 7.78595 3.75 5.42894 5.21446 3.96446C6.67894 2.5 9.03595 2.5 13.75 2.5H16.25C20.964 2.5 23.3211 2.5 24.7855 3.96446C26.25 5.42894 26.25 7.78595 26.25 12.5V17.5C26.25 22.214 26.25 24.5711 24.7855 26.0355C23.3211 27.5 20.964 27.5 16.25 27.5H13.75C9.03595 27.5 6.67894 27.5 5.21446 26.0355C3.75 24.5711 3.75 22.214 3.75 17.5V12.5Z" fill="#001931"/>
<path fill-rule="evenodd" clip-rule="evenodd" d="M15 8C19.4183 8 23 11.3578 23 15.5C23 19.6421 19.4183 23 15 23C10.5817 23 7 19.6421 7 15.5C7 11.3578 10.5817 8 15 8ZM15.8018 14.75H14.2018V19.25H15.8018V14.75ZM15.0081 11.5625C14.4249 11.5625 14.0018 11.957 14.0018 12.4896C14.0018 13.0438 14.4137 13.4375 15.0081 13.4375C15.5794 13.4375 16.0018 13.0438 16.0018 12.5C16.0018 11.957 15.5794 11.5625 15.0081 11.5625Z" fill="#001931"/>
</svg>
