<svg width="30" height="30" viewBox="0 0 30 30" fill="none" xmlns="http://www.w3.org/2000/svg">
<path opacity="0.5" d="M15 27.5C9.10744 27.5 6.16116 27.5 4.33059 25.6694C2.5 23.8389 2.5 20.8925 2.5 15C2.5 9.10744 2.5 6.16116 4.33059 4.33059C6.16116 2.5 9.10744 2.5 15 2.5C20.8925 2.5 23.8389 2.5 25.6694 4.33059C27.5 6.16116 27.5 9.10744 27.5 15C27.5 20.8925 27.5 23.8389 25.6694 25.6694C23.8389 27.5 20.8925 27.5 15 27.5Z" fill="#001931"/>
<path d="M15 10.3125C15.5177 10.3125 15.9375 10.7322 15.9375 11.25V14.0625H18.75C19.2677 14.0625 19.6875 14.4822 19.6875 15C19.6875 15.5177 19.2677 15.9375 18.75 15.9375H15.9375V18.75C15.9375 19.2677 15.5177 19.6875 15 19.6875C14.4822 19.6875 14.0625 19.2677 14.0625 18.75V15.9375H11.25C10.7322 15.9375 10.3125 15.5177 10.3125 15C10.3125 14.4822 10.7322 14.0625 11.25 14.0625H14.0625V11.25C14.0625 10.7322 14.4822 10.3125 15 10.3125Z" fill="#001931"/>
</svg>
