<svg width="24" height="24" viewBox="0 0 24 24" fill="none" xmlns="http://www.w3.org/2000/svg">
<path d="M21.8 5.58591L14.8 0.861908C13.9742 0.300306 12.9987 0 12 0C11.0013 0 10.0258 0.300306 9.2 0.861908L2.2 5.58591C1.52215 6.04408 0.967097 6.6616 0.583525 7.38428C0.199953 8.10697 -0.000414419 8.91274 6.43539e-07 9.73091V19.0069C0.0015885 20.3325 0.528883 21.6033 1.46622 22.5407C2.40356 23.478 3.67441 24.0053 5 24.0069H19C20.3256 24.0053 21.5964 23.478 22.5338 22.5407C23.4711 21.6033 23.9984 20.3325 24 19.0069V9.73091C24.0004 8.91274 23.8 8.10697 23.4165 7.38428C23.0329 6.6616 22.4778 6.04408 21.8 5.58591ZM22 19.0069C22 19.8026 21.6839 20.5656 21.1213 21.1282C20.5587 21.6908 19.7956 22.0069 19 22.0069H5C4.20435 22.0069 3.44129 21.6908 2.87868 21.1282C2.31607 20.5656 2 19.8026 2 19.0069V9.73091C1.99997 9.23983 2.1205 8.75625 2.351 8.32262C2.5815 7.889 2.91492 7.51859 3.322 7.24391L10.322 2.51991C10.817 2.18363 11.4016 2.00383 12 2.00383C12.5984 2.00383 13.183 2.18363 13.678 2.51991L20.678 7.24391C21.0851 7.51859 21.4185 7.889 21.649 8.32262C21.8795 8.75625 22 9.23983 22 9.73091V19.0069ZM12 7.01291C10.8122 7.01276 9.65116 7.36515 8.66384 8.02543C7.67652 8.68571 6.90739 9.62417 6.45387 10.7219C6.00035 11.8197 5.88285 13.0274 6.11625 14.192C6.34966 15.3566 6.92347 16.4257 7.765 17.2639L9.589 19.0479C10.2353 19.6738 11.0998 20.0238 11.9995 20.0238C12.8992 20.0238 13.7637 19.6738 14.41 19.0479L16.243 17.2559C17.0823 16.4168 17.6538 15.3476 17.8854 14.1836C18.117 13.0197 17.9981 11.8132 17.544 10.7167C17.0898 9.62026 16.3206 8.68314 15.3338 8.02386C14.347 7.36458 13.1868 7.01277 12 7.01291ZM14.836 15.8339L13.011 17.6189C12.7398 17.8815 12.377 18.0284 11.9995 18.0284C11.622 18.0284 11.2592 17.8815 10.988 17.6189L9.171 15.8419C8.61195 15.2828 8.23113 14.5706 8.07663 13.7952C7.92213 13.0198 8.00088 12.216 8.30294 11.4854C8.60499 10.7547 9.11681 10.13 9.77373 9.69002C10.4307 9.25008 11.2032 9.01468 11.9939 9.01357C12.7845 9.01245 13.5577 9.24566 14.2159 9.68375C14.8741 10.1218 15.3876 10.7451 15.6918 11.4749C15.9959 12.2048 16.0769 13.0083 15.9246 13.7841C15.7723 14.56 15.3935 15.2732 14.836 15.8339ZM13 13.0069C13 13.2047 12.9414 13.398 12.8315 13.5625C12.7216 13.7269 12.5654 13.8551 12.3827 13.9308C12.2 14.0065 11.9989 14.0263 11.8049 13.9877C11.6109 13.9491 11.4327 13.8539 11.2929 13.714C11.153 13.5742 11.0578 13.396 11.0192 13.202C10.9806 13.008 11.0004 12.8069 11.0761 12.6242C11.1518 12.4415 11.28 12.2853 11.4444 12.1754C11.6089 12.0656 11.8022 12.0069 12 12.0069C12.2652 12.0069 12.5196 12.1123 12.7071 12.2998C12.8946 12.4873 13 12.7417 13 13.0069Z" fill="#5A5A5C"/>
</svg>
