<svg width="30" height="30" viewBox="0 0 30 30" fill="none" xmlns="http://www.w3.org/2000/svg">
<path fill-rule="evenodd" clip-rule="evenodd" d="M1.61086 3.45355C1.7746 2.96235 2.30552 2.69688 2.79671 2.86062L3.12786 2.971C3.14436 2.9765 3.1608 2.98198 3.1772 2.98745C3.96016 3.24841 4.62182 3.46893 5.14211 3.71097C5.69516 3.96826 6.17502 4.28712 6.5389 4.79196C6.90276 5.29681 7.05352 5.85288 7.12271 6.45891C7.18781 7.02903 7.18778 7.72648 7.18775 8.5518V11.875C7.18775 13.6693 7.18975 14.9206 7.31668 15.8649C7.44 16.782 7.66556 17.2678 8.01151 17.6138C8.35747 17.9596 8.84318 18.1853 9.7604 18.3085C10.7046 18.4355 11.956 18.4375 13.7502 18.4375H22.5002C23.018 18.4375 23.4377 18.8573 23.4377 19.375C23.4377 19.8928 23.018 20.3125 22.5002 20.3125H13.6816C11.9722 20.3125 10.5943 20.3125 9.51056 20.1669C8.38542 20.0156 7.43808 19.692 6.68568 18.9395C5.9333 18.1871 5.60967 17.2398 5.45841 16.1146C5.31271 15.031 5.31272 13.6531 5.31275 11.9436V8.60381C5.31275 7.71256 5.31134 7.12285 5.25981 6.6716C5.21104 6.24428 5.12585 6.03817 5.01782 5.8883C4.9098 5.73842 4.7412 5.59242 4.35125 5.41102C3.93944 5.21945 3.38044 5.03161 2.53492 4.74978L2.20379 4.6394C1.7126 4.47567 1.44714 3.94475 1.61086 3.45355Z" fill="#001931"/>
<path d="M7.1814 7.49994C7.1876 7.82384 7.1876 8.1744 7.18758 8.55169L7.18757 11.8749C7.18757 13.6692 7.18957 14.9206 7.31651 15.8647C7.33503 16.0026 7.35587 16.1306 7.37907 16.25H20.0276C21.2269 16.25 21.8265 16.25 22.2961 15.9402C22.7657 15.6306 23.002 15.0795 23.4744 13.9771L24.0101 12.7271C25.022 10.3661 25.5279 9.1856 24.9721 8.34276C24.4164 7.49994 23.132 7.49994 20.5634 7.49994H7.1814Z" fill="#001931"/>
<path d="M9.0625 11.25C9.0625 10.7322 9.48224 10.3125 10 10.3125H13.75C14.2678 10.3125 14.6875 10.7322 14.6875 11.25C14.6875 11.7678 14.2678 12.1875 13.75 12.1875H10C9.48224 12.1875 9.0625 11.7678 9.0625 11.25Z" fill="#001931"/>
<path d="M9.375 22.5C10.4105 22.5 11.25 23.3395 11.25 24.375C11.25 25.4105 10.4105 26.25 9.375 26.25C8.33946 26.25 7.5 25.4105 7.5 24.375C7.5 23.3395 8.33946 22.5 9.375 22.5Z" fill="#001931"/>
<path d="M22.5 24.3751C22.5 23.3395 21.6605 22.5001 20.625 22.5001C19.5895 22.5001 18.75 23.3395 18.75 24.3751C18.75 25.4106 19.5895 26.2501 20.625 26.2501C21.6605 26.2501 22.5 25.4106 22.5 24.3751Z" fill="#001931"/>
</svg>
