<svg width="30" height="30" viewBox="0 0 30 30" fill="none" xmlns="http://www.w3.org/2000/svg">
<path d="M3.75 7.98247C3.75 7.3769 4.18173 6.88599 4.71429 6.88599L8.04459 6.8854C8.70627 6.86633 9.29003 6.38791 9.51518 5.68015C9.5211 5.66154 9.5279 5.63859 9.55231 5.5553L9.69581 5.0657C9.78362 4.76551 9.86013 4.50398 9.96719 4.27021C10.3901 3.3467 11.1726 2.7054 12.0768 2.54121C12.3057 2.49965 12.5481 2.49983 12.8264 2.50003H17.1739C17.4521 2.49983 17.6945 2.49965 17.9234 2.54121C18.8276 2.7054 19.6101 3.3467 20.033 4.27021C20.1401 4.50398 20.2166 4.76551 20.3044 5.0657L20.4479 5.5553C20.4722 5.63859 20.4791 5.66154 20.485 5.68015C20.7103 6.38791 21.4098 6.86691 22.0714 6.88599H25.2857C25.8182 6.88599 26.25 7.3769 26.25 7.98247C26.25 8.58804 25.8182 9.07895 25.2857 9.07895H4.71429C4.18173 9.07895 3.75 8.58804 3.75 7.98247Z" fill="#001931"/>
<path fill-rule="evenodd" clip-rule="evenodd" d="M14.4945 27.5001H15.5055C18.9839 27.5001 20.7231 27.5001 21.8539 26.3927C22.9847 25.2854 23.1004 23.4689 23.3317 19.8357L23.6651 14.6009C23.7907 12.6296 23.8535 11.644 23.2861 11.0195C22.7189 10.3949 21.7609 10.3949 19.845 10.3949H10.155C8.23909 10.3949 7.2811 10.3949 6.71381 11.0195C6.14652 11.644 6.2093 12.6296 6.33485 14.6009L6.66824 19.8357C6.89962 23.4689 7.01531 25.2854 8.14611 26.3927C9.27691 27.5001 11.0161 27.5001 14.4945 27.5001ZM12.8079 15.2357C12.7564 14.6935 12.2969 14.2977 11.7817 14.352C11.2665 14.4062 10.8906 14.8899 10.9421 15.4321L11.5671 22.0111C11.6187 22.5534 12.0781 22.9491 12.5932 22.8949C13.1085 22.8406 13.4844 22.357 13.4329 21.8147L12.8079 15.2357ZM18.2182 14.352C18.7335 14.4062 19.1094 14.8899 19.0579 15.4321L18.4329 22.0111C18.3814 22.5534 17.9219 22.9491 17.4067 22.8949C16.8915 22.8406 16.5156 22.357 16.5671 21.8147L17.1921 15.2357C17.2436 14.6935 17.7031 14.2977 18.2182 14.352Z" fill="#001931"/>
</svg>
