<svg width="26" height="22" viewBox="0 0 26 22" fill="none" xmlns="http://www.w3.org/2000/svg">
<path fill-rule="evenodd" clip-rule="evenodd" d="M16.75 9.12502C17.6923 9.12487 18.6093 8.82068 19.3649 8.25767C20.1204 7.69466 20.6741 6.90289 20.9437 6.00003H24.25C24.5815 6.00003 24.8995 5.86833 25.1339 5.63391C25.3683 5.39949 25.5 5.08155 25.5 4.75003C25.5 4.41851 25.3683 4.10056 25.1339 3.86614C24.8995 3.63172 24.5815 3.50003 24.25 3.50003H20.9437C20.6737 2.59763 20.1198 1.8064 19.3643 1.24387C18.6088 0.681333 17.6919 0.377502 16.75 0.377502C15.8081 0.377502 14.8912 0.681333 14.1357 1.24387C13.3802 1.8064 12.8263 2.59763 12.5562 3.50003H1.75C1.41848 3.50003 1.10054 3.63172 0.866116 3.86614C0.631696 4.10056 0.5 4.41851 0.5 4.75003C0.5 5.08155 0.631696 5.39949 0.866116 5.63391C1.10054 5.86833 1.41848 6.00003 1.75 6.00003H12.5562C12.8258 6.90289 13.3796 7.69466 14.1351 8.25767C14.8907 8.82068 15.8077 9.12487 16.75 9.12502ZM1.75 16C1.41848 16 1.10054 16.1317 0.866116 16.3661C0.631696 16.6006 0.5 16.9185 0.5 17.25C0.5 17.5815 0.631696 17.8995 0.866116 18.1339C1.10054 18.3683 1.41848 18.5 1.75 18.5H4.43125C4.70129 19.4024 5.25521 20.1937 6.01073 20.7562C6.76624 21.3187 7.68306 21.6225 8.625 21.6225C9.56694 21.6225 10.4838 21.3187 11.2393 20.7562C11.9948 20.1937 12.5487 19.4024 12.8187 18.5H24.25C24.5815 18.5 24.8995 18.3683 25.1339 18.1339C25.3683 17.8995 25.5 17.5815 25.5 17.25C25.5 16.9185 25.3683 16.6006 25.1339 16.3661C24.8995 16.1317 24.5815 16 24.25 16H12.8187C12.5487 15.0976 11.9948 14.3064 11.2393 13.7439C10.4838 13.1813 9.56694 12.8775 8.625 12.8775C7.68306 12.8775 6.76624 13.1813 6.01073 13.7439C5.25521 14.3064 4.70129 15.0976 4.43125 16H1.75Z" fill="#001931"/>
</svg>
