<svg width="30" height="30" viewBox="0 0 30 30" fill="none" xmlns="http://www.w3.org/2000/svg">
<g opacity="0.5">
<path fill-rule="evenodd" clip-rule="evenodd" d="M3.149 9.77842C2.5 10.9641 2.5 12.3944 2.5 15.2549V17.1562C2.5 22.0322 2.5 24.4704 3.96446 25.9851C5.42894 27.5 7.78595 27.5 12.5 27.5H17.5C22.214 27.5 24.5711 27.5 26.0355 25.9851C27.5 24.4704 27.5 22.0322 27.5 17.1562V15.2549C27.5 12.3944 27.5 10.9641 26.851 9.77842C26.202 8.59276 25.0164 7.85689 22.645 6.38515L20.145 4.83359C17.6382 3.27786 16.3849 2.5 15 2.5C13.6151 2.5 12.3617 3.27786 9.85504 4.83359L7.35504 6.38516C4.98369 7.85689 3.798 8.59276 3.149 9.77842ZM14.0625 22.5C14.0625 23.0177 14.4822 23.4375 15 23.4375C15.5177 23.4375 15.9375 23.0177 15.9375 22.5V18.75C15.9375 18.2322 15.5177 17.8125 15 17.8125C14.4822 17.8125 14.0625 18.2322 14.0625 18.75V22.5Z" fill="#001931"/>
</g>
</svg>
