<svg width="30" height="30" viewBox="0 0 30 30" fill="none" xmlns="http://www.w3.org/2000/svg">
<path opacity="0.5" d="M3.75 12.5C3.75 7.78595 3.75 5.42894 5.21446 3.96446C6.67894 2.5 9.03595 2.5 13.75 2.5H16.25C20.964 2.5 23.3211 2.5 24.7855 3.96446C26.25 5.42894 26.25 7.78595 26.25 12.5V17.5C26.25 22.214 26.25 24.5711 24.7855 26.0355C23.3211 27.5 20.964 27.5 16.25 27.5H13.75C9.03595 27.5 6.67894 27.5 5.21446 26.0355C3.75 24.5711 3.75 22.214 3.75 17.5V12.5Z" fill="#001931"/>
<path d="M21.3179 19.8907C22.574 18.5776 23.3332 16.8686 23.3332 15C23.3332 13.1314 22.574 11.4224 21.3179 10.1093L17.7573 13.3139C18.1207 13.7944 18.3332 14.3749 18.3332 15C18.3332 15.6251 18.1207 16.2056 17.7573 16.6862L21.3179 19.8907Z" fill="#001931"/>
<path d="M20.4341 20.6862C18.9751 21.8167 17.0763 22.5 15 22.5C12.9238 22.5 11.0249 21.8167 9.56592 20.6862L13.1265 17.4817C13.6605 17.8088 14.3055 18 15 18C15.6946 18 16.3396 17.8088 16.8735 17.4817L20.4341 20.6862Z" fill="#001931"/>
<path d="M8.68208 19.8907L12.2427 16.6862C11.8792 16.2056 11.6667 15.6251 11.6667 15C11.6667 14.3749 11.8792 13.7944 12.2427 13.3139L8.68208 10.1093C7.42603 11.4224 6.66675 13.1314 6.66675 15C6.66675 16.8686 7.42603 18.5776 8.68208 19.8907Z" fill="#001931"/>
<path d="M15 12C14.3055 12 13.6605 12.1912 13.1265 12.5183L9.56592 9.3138C11.0249 8.18335 12.9238 7.5 15 7.5C17.0763 7.5 18.9751 8.18335 20.4341 9.3138L16.8735 12.5183C16.3396 12.1912 15.6946 12 15 12Z" fill="#001931"/>
</svg>
