<svg width="38" height="38" viewBox="0 0 38 38" fill="none" xmlns="http://www.w3.org/2000/svg">
<circle cx="19" cy="19" r="19" fill="#001931"/>
<path d="M19.5939 10.2004C19.2502 9.9332 18.7498 9.9332 18.4061 10.2004L8.32295 18.0754C7.93719 18.3777 7.89136 18.9086 8.21601 19.2637C8.54065 19.6187 9.1212 19.6609 9.50695 19.3621L10.4465 18.6309V25.1875C10.4465 26.7414 11.8139 28 13.502 28H24.5018C26.19 28 27.5573 26.7414 27.5573 25.1875V18.6309L28.493 19.3621C28.8788 19.6645 29.4593 19.6187 29.784 19.2637C30.1086 18.9086 30.0628 18.3742 29.6771 18.0754L19.5939 10.2004ZM12.2798 25.1875V17.2L19.0019 11.9512L25.724 17.2V25.1875C25.724 25.8098 25.1778 26.3125 24.5018 26.3125H22.6685V20.9688C22.6685 20.1918 21.9848 19.5625 21.1408 19.5625H16.8631C16.019 19.5625 15.3353 20.1918 15.3353 20.9688V26.3125H13.502C12.826 26.3125 12.2798 25.8098 12.2798 25.1875ZM17.1686 26.3125V21.25H20.8352V26.3125H17.1686Z" fill="white"/>
</svg>
