<svg width="30" height="30" viewBox="0 0 30 30" fill="none" xmlns="http://www.w3.org/2000/svg">
<path d="M20.6595 2.5H9.34001C7.83649 2.5 7.08473 2.5 6.4806 2.87338C5.87646 3.24675 5.54026 3.91914 4.86788 5.26393L3.11335 9.69911C2.70799 10.7238 2.35333 11.9316 3.03568 12.7969C3.49345 13.3774 4.20305 13.75 4.99973 13.75C6.38044 13.75 7.49973 12.6307 7.49973 11.25C7.49973 12.6307 8.61903 13.75 9.99973 13.75C11.3804 13.75 12.4997 12.6307 12.4997 11.25C12.4997 12.6307 13.619 13.75 14.9998 13.75C16.3805 13.75 17.4998 12.6307 17.4998 11.25C17.4998 12.6307 18.619 13.75 19.9998 13.75C21.3805 13.75 22.4998 12.6307 22.4998 11.25C22.4998 12.6307 23.619 13.75 24.9997 13.75C25.7964 13.75 26.506 13.3774 26.9639 12.7969C27.6463 11.9316 27.2916 10.7238 26.8863 9.69911L25.1318 5.26393C24.4593 3.91914 24.1231 3.24675 23.519 2.87338C22.9149 2.5 22.1631 2.5 20.6595 2.5Z" fill="#001931"/>
<path d="M11.875 26.5625V23.125C11.875 21.9568 11.875 21.3726 12.1262 20.9375C12.2908 20.6525 12.5275 20.4158 12.8125 20.2513C13.2476 20 13.8317 20 15 20C16.1682 20 16.7524 20 17.1875 20.2513C17.4725 20.4158 17.7092 20.6525 17.8737 20.9375C18.125 21.3726 18.125 21.9568 18.125 23.125V26.5625H11.875Z" fill="#001931"/>
<path opacity="0.5" fill-rule="evenodd" clip-rule="evenodd" d="M5 13.75C6.38059 13.7499 7.49973 12.6306 7.49973 11.25C7.49973 12.6307 8.61903 13.75 9.99973 13.75C11.3804 13.75 12.4997 12.6307 12.4997 11.25C12.4997 12.6307 13.619 13.75 14.9998 13.75C16.3805 13.75 17.4998 12.6307 17.4998 11.25C17.4998 12.6307 18.619 13.75 19.9998 13.75C21.3805 13.75 22.4998 12.6307 22.4998 11.25C22.4998 12.6307 23.619 13.75 24.9998 13.75L25 26.5625H18.125V23.125C18.125 21.9568 18.125 21.3726 17.8737 20.9375C17.7092 20.6525 17.4725 20.4158 17.1875 20.2513C16.7524 20 16.1682 20 15 20C13.8318 20 13.2476 20 12.8125 20.2513C12.5275 20.4158 12.2908 20.6525 12.1262 20.9375C11.875 21.3726 11.875 21.9568 11.875 23.125V26.5625H5V13.75Z" fill="#001931"/>
<path d="M18.125 26.5625H11.875H5H2.5C1.98224 26.5625 1.5625 26.9822 1.5625 27.5C1.5625 28.0178 1.98224 28.4375 2.5 28.4375H27.5C28.0177 28.4375 28.4375 28.0178 28.4375 27.5C28.4375 26.9822 28.0177 26.5625 27.5 26.5625H25H18.125Z" fill="#001931"/>
</svg>
