<?xml version="1.0" encoding="UTF-8"?>
<svg id="Layer_1" data-name="Layer 1" xmlns="http://www.w3.org/2000/svg" viewBox="0 0 741.72 666.09">
  <defs>
    <style>
      .cls-1 {
        fill: #fff;
        fill-rule: evenodd;
        stroke-width: 0px;
      }
    </style>
  </defs>
  <path id="_337251824" data-name=" 337251824" class="cls-1" d="M563.8,205.95h84.22l-72.49-108.41c-4.63-6.93-2.78-16.36,4.18-20.99,6.93-4.65,11.33-10.16,15.98-3.23l93.28,139.35c.1.15.2.33.3.48,1.43,2.3,2.25,5.03,2.25,7.93v42.82c0,31.97-25.99,57.96-57.96,57.96h-37.1c-16.96,0-32.22-7.3-42.82-18.94-10.61,11.63-25.89,18.94-42.82,18.94h-24.34c-16.96,0-32.22-7.3-42.82-18.94-10.61,11.63-25.89,18.94-42.82,18.94h-59.91c-16.96,0-32.22-7.3-42.82-18.94-10.61,11.63-25.89,18.94-42.82,18.94h-24.36c-16.96,0-32.22-7.3-42.82-18.94-10.61,11.63-25.89,18.94-42.82,18.94h-37.1c-31.97,0-57.96-25.99-57.96-57.96v-42.82c0-3.2,1-6.18,2.7-8.63l94.9-142.11c4.63-6.93,7.25,1.55,14.21,6.18,6.93,4.63,8.8,14.06,4.18,20.99l-72.49,108.41h84.22l49.93-122.52c3.15-7.7,12.03-11.46,19.74-8.3,7.7,3.15,11.43,12.03,8.3,19.74l-45.28,111.11h75.57l29.22-120.39c1.95-8.08,10.18-13.11,18.29-11.13,8.08,1.95,13.11,10.18,11.13,18.29l-27.47,113.24h107.06l-27.47-113.24c-1.95-8.08,3.05-16.33,11.16-18.29,8.08-1.95,16.31,3.05,18.29,11.13l29.22,120.39h75.59l-45.28-111.11c-3.15-7.7.6-16.58,8.3-19.74,7.7-3.13,16.58.6,19.74,8.3l49.83,122.54h0ZM568.77,236.22v27.94c.13,15.16,12.51,27.44,27.69,27.44h37.1c15.26,0,27.69-12.43,27.69-27.69v-27.69h-92.48ZM538.51,263.91v-27.69h-79.72v27.99c.15,15.13,12.53,27.39,27.69,27.39h24.34c15.26,0,27.69-12.41,27.69-27.69h0ZM313.23,236.22v27.69c0,15.26,12.43,27.69,27.69,27.69h59.91c15.26,0,27.69-12.43,27.69-27.69v-27.69h-115.29ZM282.94,263.91v-27.69h-79.72v27.69c0,15.26,12.43,27.69,27.69,27.69h24.34c15.28,0,27.69-12.41,27.69-27.69h0ZM172.95,264.06v-27.84h-92.48v27.69c0,15.26,12.43,27.69,27.69,27.69h37.1c15.21,0,27.62-12.33,27.69-27.54h0Z"/>
  <path id="_337252232" data-name=" 337252232" class="cls-1" d="M106.96,620.19c-4.18,0-7.58-3.38-7.58-7.58v-276.11c2.88.35,5.8.53,8.78.53h37.1c15.56,0,30.47-4.93,42.82-13.88,12.36,8.96,27.27,13.88,42.82,13.88h24.34c15.56,0,30.47-4.93,42.82-13.88,12.36,8.96,27.27,13.88,42.82,13.88h59.91c15.56,0,30.47-4.93,42.82-13.88,12.36,8.96,27.27,13.88,42.82,13.88h24.34c15.56,0,30.47-4.93,42.82-13.88,12.36,8.96,27.27,13.88,42.82,13.88h37.1c5.25,0,10.38-.55,15.33-1.63v277.23c0,4.18-3.38,7.58-7.58,7.58-178.53-.03-356-.03-534.33-.03h0ZM557.62,400.29h-137.78c-4.18,0-7.58-3.38-7.58-7.58v-32.84c0-4.18,3.38-7.58,7.58-7.58h137.78c4.18,0,7.58,3.38,7.58,7.58v32.84c0,4.2-3.4,7.58-7.58,7.58ZM427.42,385.15h122.64v-17.71h-122.64v17.71h0ZM493.58,489.71h-73.74c-4.18,0-7.58-3.38-7.58-7.58s3.38-7.58,7.58-7.58h73.74c4.18,0,7.58,3.38,7.58,7.58-.03,4.18-3.4,7.58-7.58,7.58ZM567.3,528.16h-147.46c-4.18,0-7.58-3.38-7.58-7.58s3.38-7.58,7.58-7.58h147.46c4.18,0,7.58,3.38,7.58,7.58s-3.38,7.58-7.58,7.58ZM567.3,566.63h-147.46c-4.18,0-7.58-3.38-7.58-7.58s3.38-7.58,7.58-7.58h147.46c4.18,0,7.58,3.38,7.58,7.58s-3.38,7.58-7.58,7.58ZM296.67,417.05h-25.66v9.58h24.59c4.05,0,7.38,3.18,7.55,7.23l4.93,109.46h18.84l-5.35-126.27h-24.89ZM263.45,441.76h-92.28l-4.05,90.25h125.3l-4.05-90.25h-24.91ZM188.51,426.63v-25.49c0-22.41,18.24-40.62,40.62-40.62h.65c7.75-10.48,19.84-16.38,33.79-16.38,22.41,0,40.62,18.24,40.62,40.62v17.16h24.59c4.05,0,7.38,3.2,7.55,7.25l5.98,141.41c.08,2.05-.68,4.08-2.1,5.55-1.43,1.5-3.4,2.33-5.45,2.33h-26.04l.35,7.7c.05.38.08.75.08,1.13,0,4.18-3.4,7.58-7.58,7.58h-143.68c-2.08,0-4.05-.85-5.48-2.35-1.43-1.5-2.18-3.5-2.1-5.58l5.98-133.08c.18-4.05,3.5-7.23,7.55-7.23h24.66ZM293.09,547.17h-126.67l-.58,12.53h127.8l-.55-12.53ZM255.87,426.63v-25.49c0-13.13-9.98-23.96-22.74-25.34-.1,0-.2-.03-.28-.03-.8-.08-1.63-.13-2.48-.13h-1.23c-14.06,0-25.49,11.43-25.49,25.49v25.49h52.2ZM271,401.91h18.09v-17.16c0-14.06-11.43-25.49-25.49-25.49-4.9,0-11.01,1-16.36,4.93,14.01,6.43,23.76,20.56,23.76,36.97v.75h0Z"/>
  <path id="_337251800" data-name=" 337251800" class="cls-1" d="M678.09,658.53H63.64c-4.18,0-7.58-3.38-7.58-7.58v-38.32c0-4.18,3.38-7.58,7.58-7.58h614.45c4.18,0,7.58,3.38,7.58,7.58v38.32c-.03,4.18-3.4,7.58-7.58,7.58Z"/>
  <path id="_337252064" data-name=" 337252064" class="cls-1" d="M726.59,666.09H15.13c-8.35,0-15.13-6.78-15.13-15.13s6.78-15.13,15.13-15.13h711.45c8.35,0,15.13,6.78,15.13,15.13s-6.78,15.13-15.13,15.13Z"/>
  <g>
    <path class="cls-1" d="M366.31,61.05c-.71,0-1.4.17-2.06.52s-1.24.85-1.73,1.51c-.49.66-.82,1.45-.98,2.36-.06.35-.08.67-.08.98,0,1.09.31,1.95.93,2.58.62.63,1.4.94,2.35.94.71,0,1.4-.18,2.07-.53.67-.35,1.25-.87,1.73-1.54s.81-1.46.97-2.38c.07-.47.11-.82.11-1.04,0-1.07-.31-1.91-.94-2.51s-1.41-.9-2.36-.9Z"/>
    <path class="cls-1" d="M442.8,60.96c-.93,0-1.75.26-2.47.79-.72.53-1.28,1.23-1.68,2.12s-.6,1.82-.6,2.8c0,1.07.29,1.9.86,2.48s1.32.87,2.25.87,1.74-.26,2.48-.79,1.33-1.23,1.75-2.1c.42-.87.63-1.79.63-2.76,0-1.09-.3-1.93-.91-2.53-.61-.59-1.38-.89-2.31-.89Z"/>
    <path class="cls-1" d="M331.67,60.83c-.96,0-1.83.31-2.59.91-.76.61-1.3,1.44-1.61,2.5h7.21c.04-.29.05-.5.05-.63,0-.87-.28-1.56-.85-2.05-.56-.49-1.3-.74-2.21-.74Z"/>
    <polygon class="cls-1" points="335.26 22.29 328.89 32.06 342.05 32.06 335.26 22.29"/>
    <path class="cls-1" d="M290.39,60.83c-.96,0-1.83.31-2.59.91-.76.61-1.3,1.44-1.61,2.5h7.21c.04-.29.05-.5.05-.63,0-.87-.28-1.56-.85-2.05-.56-.49-1.3-.74-2.21-.74Z"/>
    <path class="cls-1" d="M588.11,0H153.59c-4.2,0-7.58,3.4-7.58,7.58v69.96c0,4.2,3.4,7.58,7.58,7.58h434.52c4.2,0,7.58-3.4,7.58-7.58V7.58c0-4.2-3.4-7.58-7.58-7.58ZM263.46,68.51c.88.85,2.1,1.27,3.64,1.27,1.44,0,2.7-.39,3.78-1.17s1.89-1.87,2.42-3.25h-6.55l.49-2.89h10.32l-.6,3.33c-.49,1.33-1.26,2.56-2.29,3.69-1.04,1.13-2.28,2.03-3.71,2.72-1.44.68-2.98,1.02-4.61,1.02s-3.05-.33-4.27-.98-2.18-1.57-2.87-2.74c-.68-1.17-1.02-2.53-1.02-4.08,0-.62.05-1.26.16-1.91.33-1.87,1.05-3.55,2.16-5.04s2.47-2.64,4.1-3.47c1.62-.83,3.34-1.24,5.16-1.24,2.15,0,3.92.52,5.31,1.57s2.23,2.52,2.52,4.41h-4.39c-.29-.8-.78-1.41-1.48-1.83-.69-.42-1.55-.63-2.57-.63-1.13,0-2.18.26-3.14.76-.96.51-1.77,1.24-2.43,2.18-.66.95-1.09,2.04-1.31,3.28-.09.44-.14.94-.14,1.5,0,1.49.44,2.66,1.32,3.51ZM297.19,65.14c-.11.55-.23,1.02-.35,1.42h-11.06c-.02.13-.03.31-.03.55,0,.95.28,1.69.83,2.22.55.54,1.29.81,2.2.81.76,0,1.42-.17,1.98-.51.55-.34,1-.78,1.35-1.32h4.12c-.67,1.46-1.72,2.65-3.13,3.59-1.41.94-3.01,1.41-4.79,1.41-1.93,0-3.48-.55-4.64-1.64-1.16-1.09-1.75-2.58-1.75-4.45,0-.55.05-1.12.16-1.72.27-1.56.83-2.94,1.68-4.12.85-1.18,1.9-2.09,3.15-2.73,1.26-.64,2.63-.96,4.12-.96,1.93,0,3.46.53,4.59,1.6,1.13,1.07,1.69,2.5,1.69,4.3,0,.58-.04,1.1-.14,1.56ZM300.95,47.9h-61.74l33.17-29.68h-16.25l-11.6,10.33V11.82h58.7l-33.22,28.94h19.08l12.55-13.16v19.75l9.94-7.89,14.85-21.06-8.46-6.58h42.66l-8.64,6.58,15.09,21.06,12.81,7.92,12.43-7.92v-19.24l-13.24-8.4h44.48l-13.21,8.4v19.24l13.21,8.43h-88.3l12.53-7.4-1.64-2.48h-20.77l-1.61,2.48,10.89,7.4h-33.7ZM317.74,64.19l-1.58,8.87h-3.79l1.47-8.35c.05-.33.08-.65.08-.96,0-.91-.24-1.6-.72-2.08s-1.17-.71-2.06-.71c-1.02,0-1.89.31-2.61.91s-1.2,1.49-1.43,2.63l-1.5,8.54h-3.85l2.68-15.12h3.85l-.33,1.86c.62-.64,1.36-1.14,2.21-1.52.86-.37,1.75-.56,2.68-.56,1.56,0,2.8.42,3.7,1.27.9.85,1.35,2.05,1.35,3.62,0,.58-.04,1.11-.14,1.58ZM338.46,65.14c-.11.55-.23,1.02-.35,1.42h-11.06c-.02.13-.03.31-.03.55,0,.95.28,1.69.83,2.22.55.54,1.29.81,2.2.81.76,0,1.42-.17,1.98-.51.55-.34,1-.78,1.35-1.32h4.12c-.67,1.46-1.72,2.65-3.13,3.59-1.41.94-3.01,1.41-4.79,1.41-1.93,0-3.48-.55-4.64-1.64-1.16-1.09-1.75-2.58-1.75-4.45,0-.55.05-1.12.16-1.72.27-1.56.83-2.94,1.68-4.12.85-1.18,1.9-2.09,3.15-2.73,1.26-.64,2.63-.96,4.12-.96,1.93,0,3.46.53,4.59,1.6,1.13,1.07,1.69,2.5,1.69,4.3,0,.58-.04,1.1-.14,1.56ZM353.51,61.73h-1.01c-1.13,0-2.03.25-2.72.74-.68.49-1.18,1.33-1.49,2.51l-1.42,8.08h-3.85l2.68-15.12h3.85l-.46,2.68c.66-.91,1.42-1.62,2.29-2.13s1.82-.76,2.84-.76l-.71,4.01ZM372.02,73.06h-3.85l.41-2.21c-.6.71-1.38,1.3-2.34,1.76-.95.46-2,.7-3.13.7s-2.09-.25-2.95-.75c-.86-.5-1.52-1.21-1.99-2.13-.47-.92-.71-1.99-.71-3.21,0-.56.05-1.15.16-1.77.27-1.53.82-2.88,1.62-4.07.81-1.18,1.8-2.09,2.96-2.73,1.16-.64,2.39-.96,3.68-.96,1.13,0,2.08.23,2.85.68.77.46,1.34,1.03,1.71,1.72l.38-2.16h3.85l-2.68,15.12ZM382.8,73.06h-3.85l3.58-20.2h3.85l-3.58,20.2ZM415.5,59.16h-4.07l.03-.3c0-.6-.22-1.09-.67-1.47-.45-.38-1.07-.57-1.87-.57-.86,0-1.55.2-2.07.6-.53.4-.79.95-.79,1.64,0,.45.15.85.45,1.19.3.34.67.63,1.11.87.44.25,1.07.56,1.88.94,1.07.47,1.96.92,2.65,1.34.69.42,1.28.97,1.77,1.67.49.69.74,1.54.74,2.54,0,1.09-.3,2.07-.89,2.92-.59.86-1.43,1.52-2.51,2.01-1.08.48-2.34.72-3.78.72-1.91,0-3.48-.43-4.71-1.3-1.23-.86-1.84-2.08-1.84-3.64,0-.16.02-.41.05-.74h3.9c-.07.76.13,1.39.62,1.88.48.49,1.19.74,2.11.74s1.66-.2,2.2-.59c.54-.39.81-.95.81-1.68,0-.67-.28-1.21-.83-1.61-.55-.4-1.42-.85-2.61-1.34-1.09-.45-1.98-.87-2.66-1.26-.68-.38-1.27-.91-1.75-1.6-.48-.68-.72-1.54-.72-2.58,0-1.18.3-2.21.91-3.09.61-.87,1.45-1.55,2.51-2.02,1.06-.47,2.28-.71,3.64-.71s2.51.22,3.51.67c.99.45,1.74,1.08,2.24,1.9.5.82.71,1.77.64,2.87ZM430.06,61.07h-3.39l-1.28,7.32c-.02.11-.03.26-.03.44,0,.36.1.62.31.78s.56.23,1.05.23h1.8l-.57,3.22h-2.43c-2.73,0-4.09-1.14-4.09-3.41,0-.44.04-.86.11-1.28l1.28-7.29h-1.8l.55-3.14h1.83l.66-3.74h3.85l-.66,3.74h3.36l-.54,3.14ZM448.76,68.77c-.82,1.4-1.94,2.51-3.37,3.32s-3.01,1.21-4.74,1.21c-1.29,0-2.43-.26-3.42-.79-.99-.53-1.76-1.27-2.31-2.24-.54-.96-.82-2.07-.82-3.33,0-1.71.41-3.27,1.22-4.68.81-1.41,1.92-2.53,3.33-3.34,1.41-.82,2.98-1.23,4.71-1.23,1.29,0,2.44.27,3.45.81,1.01.54,1.79,1.29,2.35,2.25.56.97.83,2.08.83,3.33,0,1.73-.41,3.29-1.23,4.69ZM464.97,61.73h-1.01c-1.13,0-2.03.25-2.72.74-.68.49-1.18,1.33-1.49,2.51l-1.42,8.08h-3.85l2.68-15.12h3.85l-.46,2.68c.66-.91,1.42-1.62,2.29-2.13s1.82-.76,2.84-.76l-.71,4.01ZM484.19,65.14c-.11.55-.23,1.02-.35,1.42h-11.06c-.02.13-.03.31-.03.55,0,.95.28,1.69.83,2.22.55.54,1.29.81,2.2.81.76,0,1.42-.17,1.98-.51.55-.34,1-.78,1.35-1.32h4.12c-.67,1.46-1.72,2.65-3.13,3.59-1.41.94-3.01,1.41-4.79,1.41-1.93,0-3.48-.55-4.64-1.64-1.16-1.09-1.75-2.58-1.75-4.45,0-.55.05-1.12.16-1.72.27-1.56.83-2.94,1.68-4.12.85-1.18,1.9-2.09,3.15-2.73,1.26-.64,2.63-.96,4.12-.96,1.93,0,3.46.53,4.59,1.6,1.13,1.07,1.69,2.5,1.69,4.3,0,.58-.04,1.1-.14,1.56ZM490.69,20.22v27.67h-18.66l-22.73-20.51v12.08l13.27,8.43h-36.97l13.24-8.43v-19.24l-13.24-8.4h32.17l22.46,19.48v-11.07l-13.27-8.4h36.97l-13.24,8.4Z"/>
    <path class="cls-1" d="M477.39,60.83c-.96,0-1.83.31-2.59.91-.76.61-1.3,1.44-1.61,2.5h7.21c.04-.29.05-.5.05-.63,0-.87-.28-1.56-.85-2.05-.56-.49-1.3-.74-2.21-.74Z"/>
  </g>
</svg>