<svg width="30" height="30" viewBox="0 0 30 30" fill="none" xmlns="http://www.w3.org/2000/svg">
<path opacity="0.5" d="M3.75 12.5C3.75 7.78595 3.75 5.42894 5.21446 3.96446C6.67894 2.5 9.03595 2.5 13.75 2.5H16.25C20.964 2.5 23.3211 2.5 24.7855 3.96446C26.25 5.42894 26.25 7.78595 26.25 12.5V17.5C26.25 22.214 26.25 24.5711 24.7855 26.0355C23.3211 27.5 20.964 27.5 16.25 27.5H13.75C9.03595 27.5 6.67894 27.5 5.21446 26.0355C3.75 24.5711 3.75 22.214 3.75 17.5V12.5Z" fill="#001931"/>
<path d="M15.0001 13.5C16.841 13.5 18.3334 12.1569 18.3334 10.5C18.3334 8.84315 16.841 7.5 15.0001 7.5C13.1591 7.5 11.6667 8.84315 11.6667 10.5C11.6667 12.1569 13.1591 13.5 15.0001 13.5Z" fill="#001931"/>
<path d="M21.6666 19.125C21.6666 20.989 21.6666 22.5 14.9999 22.5C8.33325 22.5 8.33325 20.989 8.33325 19.125C8.33325 17.261 11.318 15.75 14.9999 15.75C18.6818 15.75 21.6666 17.261 21.6666 19.125Z" fill="#001931"/>
</svg>
