<svg width="24" height="10" viewBox="0 0 24 10" fill="none" xmlns="http://www.w3.org/2000/svg">
<path d="M8.31552 4.63636C8.31552 5.58807 8.13512 6.39773 7.77433 7.06534C7.41637 7.73295 6.92773 8.2429 6.30842 8.59517C5.69194 8.9446 4.99876 9.11932 4.22887 9.11932C3.4533 9.11932 2.75728 8.94318 2.1408 8.59091C1.52433 8.23864 1.03711 7.72869 0.679155 7.06108C0.3212 6.39347 0.142223 5.58523 0.142223 4.63636C0.142223 3.68466 0.3212 2.875 0.679155 2.20739C1.03711 1.53977 1.52433 1.03125 2.1408 0.681818C2.75728 0.329545 3.4533 0.153409 4.22887 0.153409C4.99876 0.153409 5.69194 0.329545 6.30842 0.681818C6.92773 1.03125 7.41637 1.53977 7.77433 2.20739C8.13512 2.875 8.31552 3.68466 8.31552 4.63636ZM6.44478 4.63636C6.44478 4.01989 6.35245 3.5 6.16779 3.0767C5.98597 2.65341 5.72887 2.33239 5.39648 2.11364C5.0641 1.89489 4.67489 1.78551 4.22887 1.78551C3.78285 1.78551 3.39364 1.89489 3.06126 2.11364C2.72887 2.33239 2.47035 2.65341 2.28569 3.0767C2.10387 3.5 2.01296 4.01989 2.01296 4.63636C2.01296 5.25284 2.10387 5.77273 2.28569 6.19602C2.47035 6.61932 2.72887 6.94034 3.06126 7.15909C3.39364 7.37784 3.78285 7.48722 4.22887 7.48722C4.67489 7.48722 5.0641 7.37784 5.39648 7.15909C5.72887 6.94034 5.98597 6.61932 6.16779 6.19602C6.35245 5.77273 6.44478 5.25284 6.44478 4.63636ZM9.68235 9V0.272727H11.5275V7.47869H15.269V9H9.68235ZM19.5847 9H16.4909V0.272727H19.6103C20.4881 0.272727 21.2438 0.447443 21.8773 0.796875C22.5108 1.14347 22.998 1.64205 23.339 2.29261C23.6827 2.94318 23.8546 3.72159 23.8546 4.62784C23.8546 5.53693 23.6827 6.31818 23.339 6.97159C22.998 7.625 22.508 8.12642 21.8688 8.47585C21.2324 8.82528 20.4711 9 19.5847 9ZM18.3361 7.41903H19.508C20.0534 7.41903 20.5123 7.32244 20.8844 7.12926C21.2594 6.93324 21.5407 6.63068 21.7282 6.22159C21.9185 5.80966 22.0137 5.27841 22.0137 4.62784C22.0137 3.98295 21.9185 3.45597 21.7282 3.04688C21.5407 2.63778 21.2608 2.33665 20.8887 2.14347C20.5165 1.95028 20.0577 1.85369 19.5123 1.85369H18.3361V7.41903Z" fill="#FF0000"/>
</svg>
