<svg width="30" height="30" viewBox="0 0 30 30" fill="none" xmlns="http://www.w3.org/2000/svg">
<path opacity="0.5" d="M3.75 12.5C3.75 7.78595 3.75 5.42894 5.21446 3.96446C6.67894 2.5 9.03595 2.5 13.75 2.5H16.25C20.964 2.5 23.3211 2.5 24.7855 3.96446C26.25 5.42894 26.25 7.78595 26.25 12.5V17.5C26.25 22.214 26.25 24.5711 24.7855 26.0355C23.3211 27.5 20.964 27.5 16.25 27.5H13.75C9.03595 27.5 6.67894 27.5 5.21446 26.0355C3.75 24.5711 3.75 22.214 3.75 17.5V12.5Z" fill="#001931"/>
<path d="M20.6486 20.6266C20.8674 20.456 21.0658 20.2576 21.4626 19.8607L26.4094 14.914C26.5289 14.7945 26.4741 14.5885 26.3144 14.533C25.7305 14.3305 24.9709 13.9501 24.2604 13.2396C23.5499 12.5291 23.1695 11.7695 22.967 11.1856C22.9115 11.0258 22.7055 10.9711 22.586 11.0907L17.6393 16.0374C17.2424 16.4342 17.044 16.6326 16.8734 16.8514C16.6721 17.1095 16.4995 17.3886 16.3588 17.6841C16.2394 17.9345 16.1506 18.2007 15.9733 18.7331L15.7439 19.421L15.3793 20.5147L15.0374 21.5404C14.9501 21.8024 15.0183 22.0911 15.2135 22.2865C15.4089 22.4817 15.6976 22.5499 15.9596 22.4626L16.9853 22.1207L18.079 21.7561L18.7669 21.5267C19.2991 21.3494 19.5655 21.2606 19.8159 21.1412C20.1114 21.0005 20.3905 20.8279 20.6486 20.6266Z" fill="#001931"/>
<path d="M27.9581 13.3652C29.014 12.3094 29.014 10.5976 27.9581 9.54185C26.9024 8.48605 25.1906 8.48605 24.1348 9.54185L23.9758 9.70089C23.8223 9.85435 23.7528 10.0687 23.7911 10.2823C23.8153 10.4167 23.8599 10.6132 23.9413 10.8476C24.1039 11.3164 24.411 11.9319 24.9896 12.5104C25.5681 13.089 26.1836 13.3961 26.6524 13.5587C26.8869 13.6401 27.0833 13.6847 27.2176 13.7089C27.4313 13.7472 27.6456 13.6777 27.7991 13.5242L27.9581 13.3652Z" fill="#001931"/>
<path fill-rule="evenodd" clip-rule="evenodd" d="M9.0625 11.25C9.0625 10.7322 9.48224 10.3125 10 10.3125H18.125C18.6427 10.3125 19.0625 10.7322 19.0625 11.25C19.0625 11.7678 18.6427 12.1875 18.125 12.1875H10C9.48224 12.1875 9.0625 11.7678 9.0625 11.25ZM9.0625 16.25C9.0625 15.7323 9.48224 15.3125 10 15.3125H13.75C14.2677 15.3125 14.6875 15.7323 14.6875 16.25C14.6875 16.7677 14.2677 17.1875 13.75 17.1875H10C9.48224 17.1875 9.0625 16.7677 9.0625 16.25ZM9.0625 21.25C9.0625 20.7323 9.48224 20.3125 10 20.3125H11.875C12.3928 20.3125 12.8125 20.7323 12.8125 21.25C12.8125 21.7677 12.3928 22.1875 11.875 22.1875H10C9.48224 22.1875 9.0625 21.7677 9.0625 21.25Z" fill="#001931"/>
</svg>
