<svg width="30" height="30" viewBox="0 0 30 30" fill="none" xmlns="http://www.w3.org/2000/svg">
<g clip-path="url(#clip0_41_9)">
<path opacity="0.5" d="M7.91797 16.2906L13.8952 22.2659L26.4619 9.6982L20.4873 3.7226L7.91797 16.2906ZM21.9046 8.28062C22.3196 8.69666 22.3196 9.37051 21.9046 9.78589L14.6271 17.0614C14.4197 17.2701 14.1474 17.3733 13.8761 17.3733C13.6021 17.3733 13.3305 17.2701 13.1231 17.0614C12.7074 16.6453 12.7074 15.9718 13.1231 15.5564L20.3996 8.28062C20.8147 7.8649 21.4888 7.8649 21.9046 8.28062Z" fill="#001931"/>
<path d="M5.18237 24.9158L11.8229 23.2065L6.95963 18.3432L5.18237 24.9158Z" fill="#001931"/>
<path d="M28.886 4.13174L26.0532 1.2979C25.2132 0.458556 23.7481 0.459545 22.9114 1.2979L21.991 2.21867L27.9676 8.19361L28.886 7.27449C29.7507 6.40746 29.7507 4.99746 28.886 4.13174Z" fill="#001931"/>
<path d="M26.2368 29.5233H1.14097C0.53668 29.5233 0.0471191 29.0334 0.0471191 28.4291V1.81711C0.0471191 1.21283 0.53635 0.723267 1.14097 0.723267H17.9914C18.5964 0.723267 19.0849 1.21283 19.0849 1.81711C19.0849 2.42107 18.5964 2.91096 17.9914 2.91096H2.23481V27.3349H26.2368C27.0913 27.3349 27.7866 26.64 27.7866 25.7851V12.0619C27.7866 11.4577 28.2758 10.9681 28.8801 10.9681C29.484 10.9681 29.9739 11.4577 29.9739 12.0619V25.7851C29.9743 27.8462 28.2976 29.5233 26.2368 29.5233Z" fill="#001931"/>
</g>
<defs>
<clipPath id="clip0_41_9">
<rect width="30" height="30" fill="white"/>
</clipPath>
</defs>
</svg>
