<svg width="24" height="24" viewBox="0 0 24 24" fill="none" xmlns="http://www.w3.org/2000/svg">
<path d="M23.875 12L23.0262 0.97375L12 0.125L0.125 12L12 23.875L23.875 12ZM15.2238 5.045C15.5928 4.67589 16.0629 4.42451 16.5748 4.32263C17.0867 4.22076 17.6173 4.27297 18.0995 4.47267C18.5817 4.67237 18.9939 5.01058 19.2839 5.44454C19.5739 5.8785 19.7286 6.3887 19.7286 6.91063C19.7286 7.43255 19.5739 7.94275 19.2839 8.37671C18.9939 8.81067 18.5817 9.14888 18.0995 9.34858C17.6173 9.54828 17.0867 9.60049 16.5748 9.49862C16.0629 9.39674 15.5928 9.14536 15.2238 8.77625C14.9785 8.5314 14.7839 8.24059 14.6512 7.92046C14.5184 7.60034 14.4501 7.25718 14.4501 6.91063C14.4501 6.56407 14.5184 6.22091 14.6512 5.90079C14.7839 5.58066 14.9785 5.28985 15.2238 5.045Z" fill="#001931"/>
</svg>
