<svg width="28" height="26" viewBox="0 0 28 26" fill="none" xmlns="http://www.w3.org/2000/svg">
<path d="M24.9231 9.23077C25.1526 9.23119 25.3738 9.31712 25.5434 9.47179C25.713 9.62646 25.8189 9.83878 25.8404 10.0673V23.0769C25.8382 23.79 25.5622 24.475 25.0694 24.9904C24.5766 25.5058 23.9046 25.8121 23.1923 25.8462H4.61538C3.9023 25.844 3.21729 25.568 2.70191 25.0752C2.18653 24.5823 1.88018 23.9104 1.84615 23.1981V10.1538C1.84658 9.92431 1.93251 9.70316 2.08718 9.53355C2.24185 9.36395 2.45416 9.25806 2.68269 9.23654H24.9231V9.23077ZM17.775 13.0788L17.7115 13.125L12.4269 18.8538L10.0327 16.5462C9.91123 16.4245 9.74886 16.3524 9.57717 16.3439C9.40549 16.3354 9.23677 16.391 9.10385 16.5L9.04615 16.5462L8.07692 17.4231C8.01759 17.4733 7.96902 17.535 7.93413 17.6045C7.89924 17.674 7.87876 17.7498 7.87391 17.8274C7.86906 17.905 7.87995 17.9828 7.90591 18.056C7.93187 18.1293 7.97238 18.1966 8.025 18.2538L8.07692 18.3115L11.4577 21.5135C11.721 21.7727 12.0747 21.9196 12.4442 21.9231C12.6282 21.928 12.8112 21.894 12.9812 21.8234C13.1511 21.7528 13.3043 21.6472 13.4308 21.5135L16.2577 18.5365L16.4827 18.3L16.7827 17.9827L19.6673 14.925C19.7664 14.8086 19.8259 14.6637 19.8374 14.5113C19.8488 14.3589 19.8114 14.2068 19.7308 14.0769L19.6904 14.025L18.6981 13.1365C18.5791 13.0136 18.4185 12.9396 18.2477 12.9289C18.077 12.9183 17.9084 12.9717 17.775 13.0788ZM24.9231 0C25.6571 0.00152436 26.3605 0.293771 26.8795 0.812773C27.3985 1.33177 27.6908 2.03525 27.6923 2.76923V5.53846C27.6923 5.78328 27.5951 6.01806 27.4219 6.19117C27.2488 6.36429 27.014 6.46154 26.7692 6.46154H0.923077C0.678262 6.46154 0.443473 6.36429 0.270363 6.19117C0.0972524 6.01806 0 5.78328 0 5.53846V2.76923C0.00152436 2.03525 0.293771 1.33177 0.812773 0.812773C1.33177 0.293771 2.03525 0.00152436 2.76923 0H24.9231Z" fill="#001931"/>
</svg>
