<svg width="20" height="20" viewBox="0 0 20 20" fill="none" xmlns="http://www.w3.org/2000/svg">
<path d="M11.7857 13.3018C11.8918 13.5141 11.7995 13.772 11.5827 13.8687L3.74797 17.3625C2.50144 17.9184 1.20848 16.6841 1.82591 15.5276L4.4526 10.6078C4.6569 10.2252 4.6569 9.77483 4.4526 9.39217L1.82591 4.47241C1.20847 3.31595 2.50144 2.08158 3.74797 2.63747L6.6849 3.94718C7.03729 4.10433 7.32424 4.37888 7.4968 4.724L11.7857 13.3018Z" fill="#001931"/>
<path d="M12.9443 12.8254C13.044 13.0248 13.283 13.1104 13.4867 13.0196L17.5054 11.2274C18.6086 10.7354 18.6086 9.2651 17.5054 8.77318L10.0907 5.46654C9.73344 5.30722 9.37336 5.68354 9.54828 6.03342L12.9443 12.8254Z" fill="#001931"/>
</svg>
