<svg width="38" height="38" viewBox="0 0 38 38" fill="none" xmlns="http://www.w3.org/2000/svg">
<circle cx="19" cy="19" r="19" fill="#001931"/>
<path d="M27.0563 14.5527C27.2695 14.8762 27.2916 15.2734 27.1409 15.6109C26.9975 15.9344 26.7328 16.1312 26.4019 16.1734C26.3284 16.184 26.2585 16.1875 26.1887 16.1875C25.7585 16.1875 25.3725 16.0082 25.0967 15.7234C24.7622 15.3719 24.2879 15.1715 23.7879 15.1715C23.2879 15.1715 22.8136 15.3754 22.4828 15.727C22.2144 16.0117 21.832 16.191 21.3945 16.191C20.9607 16.191 20.5747 16.0117 20.3063 15.727C19.9717 15.3719 19.4974 15.1715 18.9974 15.1715C18.4974 15.1715 18.0232 15.3719 17.6886 15.727C17.4202 16.0117 17.0379 16.191 16.6004 16.191C16.1665 16.191 15.7805 16.0117 15.5121 15.727C15.1776 15.3719 14.7033 15.1715 14.2033 15.1715C13.7033 15.1715 13.229 15.3719 12.8945 15.727C12.6261 16.0082 12.2437 16.1875 11.8099 16.1875C11.7437 16.1875 11.6702 16.184 11.5967 16.1734C11.2695 16.1312 11.0084 15.9344 10.865 15.6109C10.7143 15.2734 10.7364 14.8762 10.9496 14.5527L12.8393 11.6875H25.1629L27.0563 14.5527ZM26.1887 17.875C26.3394 17.875 26.4865 17.8645 26.6298 17.8469C28.6703 17.5867 29.6372 15.298 28.5453 13.6492L26.4387 10.4605C26.2512 10.1758 25.9166 10 25.56 10H12.4423C12.0856 10 11.7511 10.1758 11.5636 10.4605L9.45328 13.6492C8.36503 15.2945 9.32828 17.5832 11.3614 17.8469C11.5084 17.8645 11.6592 17.875 11.8062 17.875C12.5268 17.875 13.1849 17.65 13.7143 17.2773C13.8908 17.1543 14.0526 17.0102 14.1996 16.859C14.3467 17.0137 14.5084 17.1543 14.6849 17.2773C15.218 17.65 15.8761 17.875 16.5967 17.875C17.3173 17.875 17.9754 17.65 18.5085 17.2773C18.6849 17.1543 18.8467 17.0102 18.9938 16.8555C19.1408 17.0102 19.3026 17.1508 19.4791 17.2738C20.0122 17.6465 20.6702 17.8715 21.3908 17.8715C22.1188 17.8715 22.7806 17.643 23.3136 17.2633C23.4864 17.1402 23.6445 17.0031 23.7879 16.852C23.9313 17.0031 24.0931 17.1437 24.2659 17.2668C24.7989 17.643 25.4607 17.8715 26.185 17.8715L26.1887 17.875ZM12.5305 21.8125V18.9437C12.2952 18.9824 12.0562 19 11.8099 19C11.6077 19 11.4055 18.9859 11.2106 18.9613H11.207C11.0562 18.9402 10.9092 18.9156 10.7658 18.8805V21.8125V23.5V25.75C10.7658 26.991 11.8209 28 13.1187 28H24.8835C26.1813 28 27.2365 26.991 27.2365 25.75V23.5V21.8125V18.8805C27.0894 18.9156 26.9423 18.9437 26.7843 18.9613H26.7806C26.5857 18.9859 26.3872 19 26.185 19C25.9423 19 25.7034 18.9824 25.4717 18.9437V21.8125H12.5305ZM25.4717 23.5V25.75C25.4717 26.0594 25.207 26.3125 24.8835 26.3125H13.1187C12.7952 26.3125 12.5305 26.0594 12.5305 25.75V23.5H25.4717Z" fill="white"/>
</svg>
